<?xml version="1.0" encoding="utf-8"?>
<!-- Generator: Adobe Illustrator 27.5.0, SVG Export Plug-In . SVG Version: 6.00 Build 0)  -->
<svg version="1.1" xmlns="http://www.w3.org/2000/svg" xmlns:xlink="http://www.w3.org/1999/xlink" x="0px" y="0px" width="397px"
	 height="397px" viewBox="0 0 397 397" style="enable-background:new 0 0 397 397;" xml:space="preserve">
<style type="text/css">
	.st0{display:none;fill:#1D202B;}
	.st1{fill:#6ACEFF;}
	.st2{fill:#355CFF;}
	.st3{fill:#4A7DFF;}
	.st4{fill:#2A90FF;}
	.st5{fill:url(#SVGID_1_);}
	.st6{fill:none;stroke:#000000;stroke-width:9;stroke-miterlimit:10;}
	.st7{stroke:#FFFFFF;stroke-width:4;stroke-linejoin:round;stroke-miterlimit:10;}
	.st8{fill:#56B4FF;stroke:#FFFFFF;stroke-width:4;stroke-miterlimit:10;}
	.st9{fill:#6ACEFF;stroke:#FFFFFF;stroke-width:4;stroke-miterlimit:10;}
	.st10{fill:#355CFF;stroke:#FFFFFF;stroke-width:4;stroke-miterlimit:10;}
	.st11{fill:#4A7DFF;stroke:#FFFFFF;stroke-width:4;stroke-miterlimit:10;}
	.st12{fill:#2A90FF;stroke:#FFFFFF;stroke-width:4;stroke-miterlimit:10;}
	.st13{fill:none;stroke:#FFFFFF;stroke-width:4;stroke-miterlimit:10;}
	.st14{fill:#334155;stroke:#FFFFFF;stroke-width:5;stroke-miterlimit:10;}
</style>
<g id="Capa_2">
	<rect x="-0.61" y="-478.5" class="st0" width="463" height="922"/>
	<g>
		<g>
			<path class="st1" d="M77,194.73c9.65-7.45,22.68-9.06,38.8-4.79v-68.74H58.89v116.83c0.32-0.05,0.63-0.09,0.96-0.13
				C59.94,229.37,61.69,206.56,77,194.73z"/>
			<path class="st1" d="M58.89,114.21h56.91V77c0-4.69-3.81-8.5-8.5-8.5H67.39c-4.69,0-8.5,3.81-8.5,8.5V114.21z"/>
		</g>
		<g>
			<path class="st2" d="M122.89,84.59h61.9V53c0-4.69-3.81-8.5-8.5-8.5h-44.9c-4.69,0-8.5,3.81-8.5,8.5V84.59z"/>
			<path class="st2" d="M184.79,137V91.59h-61.9v100.54c1.06,0.37,2.15,0.77,3.26,1.2C129.96,182.15,144.19,150.06,184.79,137z"/>
		</g>
		<g>
			<path class="st3" d="M192.89,85h70.39V53.5c0-4.69-3.81-8.5-8.5-8.5h-53.39c-4.69,0-8.5,3.81-8.5,8.5V85z"/>
			<path class="st3" d="M221.9,131.49c15.69,0,29.58,3.14,41.38,9.36V92h-70.39v42.75c8.57-2.03,17.78-3.12,27.46-3.25
				C220.87,131.49,221.38,131.49,221.9,131.49z"/>
		</g>
		<g>
			<path class="st4" d="M324.34,82.13c-0.71-4.63-5.07-7.83-9.69-7.12l-36.44,5.55c-4.63,0.71-7.83,5.05-7.13,9.68l5.64,36.99
				l53.26-8.12L324.34,82.13z"/>
			<path class="st4" d="M305.46,206.33c6.5,0.64,22.57,2.85,39.33,9.98l-13.76-90.28l-53.26,8.12l2.99,19.6
				C299.62,172.67,304.35,197.71,305.46,206.33z"/>
		</g>
		<linearGradient id="SVGID_1_" gradientUnits="userSpaceOnUse" x1="99.7216" y1="187.0126" x2="314.8181" y2="410.7552">
			<stop  offset="0" style="stop-color:#93AAD1"/>
			<stop  offset="0.0632" style="stop-color:#889EC3"/>
			<stop  offset="0.2625" style="stop-color:#6A7D9C"/>
			<stop  offset="0.4594" style="stop-color:#52637D"/>
			<stop  offset="0.6507" style="stop-color:#415067"/>
			<stop  offset="0.8338" style="stop-color:#36455A"/>
			<stop  offset="1" style="stop-color:#334155"/>
		</linearGradient>
		<path class="st5" d="M347.68,225.34c-21.97-10.91-45.34-12.25-45.57-12.26l-3.11-0.16l-0.2-3.11c-0.02-0.3-2.3-31.03-23.75-51.88
			c-3.12-3.03-6.53-5.74-10.15-8.05c-11.76-7.57-26.22-11.4-43-11.4c-0.49,0-0.97,0-1.46,0.01c-10.75,0.14-20.88,1.53-30.09,4.14
			l-0.12,0.03c-0.3,0.07-0.61,0.17-0.91,0.26c-46.68,13.74-57.42,55.48-57.53,55.9l-0.98,3.98l-3.78-1.58
			c-3.08-1.29-6.01-2.38-8.71-3.24l-0.11-0.04c-15.89-5.11-28.32-4.33-36.92,2.31c-15.75,12.14-14.43,40.27-14.41,40.55l0.18,3.31
			l-3.3,0.36c-2.73,0.29-5.32,0.67-7.71,1.14C3,255.65,10.5,305.32,10.85,307.43l0.04,0.41c1.8,39.53,56.79,44.44,59.52,44.66
			h226.98c70.9,0,86.06-43.02,86.83-45.4C392.46,268.99,380.16,241.48,347.68,225.34z"/>
	</g>
</g>
<g id="Capa_3">
	<g>
		<g>
			<path class="st6" d="M-338.7-148.5h-39.91c-6.6,0-12-5.4-12-12V-380c0-6.6,5.4-12,12-12h39.91c6.6,0,12,5.4,12,12v219.5
				C-326.7-153.9-332.1-148.5-338.7-148.5z"/>
			<line class="st6" x1="-390.55" y1="-339.29" x2="-326.61" y2="-339.29"/>
		</g>
		<g>
			<path class="st6" d="M-269.71-148.5h-44.9c-6.6,0-12-5.4-12-12V-403c0-6.6,5.4-12,12-12h44.9c6.6,0,12,5.4,12,12v242.5
				C-257.71-153.9-263.11-148.5-269.71-148.5z"/>
			<line class="st6" x1="-326.55" y1="-368.09" x2="-257.61" y2="-368.09"/>
		</g>
		<g>
			<path class="st6" d="M-192.22-148.5h-53.39c-6.6,0-12-5.4-12-12v-243c0-6.6,5.4-12,12-12h53.39c6.6,0,12,5.4,12,12v243
				C-180.22-153.9-185.62-148.5-192.22-148.5z"/>
			<line class="st6" x1="-257.54" y1="-368.5" x2="-180.11" y2="-368.5"/>
		</g>
		<g>
			<path class="st6" d="M-96.36-152.49l-36.44,5.56c-6.52,0.99-12.68-3.53-13.67-10.05l-31.9-209.24
				c-0.99-6.52,3.53-12.68,10.05-13.67l36.44-5.56c6.52-0.99,12.68,3.53,13.67,10.05l31.9,209.24
				C-85.31-159.63-89.84-153.48-96.36-152.49z"/>
			<line class="st6" x1="-173.88" y1="-325.53" x2="-113.67" y2="-334.7"/>
		</g>
		<path class="st7" d="M-438.61-149c0,0-10-60,56-67c0,0-4-72,65-43c0,0,15-62,92-63s81.89,74.59,81.89,74.59S-38.16-242-58.39-149
			c0,0-14.22,48-90.22,48s-227.11,0-227.11,0S-436.61-105-438.61-149z"/>
	</g>
	<g>
		<g>
			<path class="st8" d="M-348.7,278.5h-39.91c-6.6,0-12-5.4-12-12V47c0-6.6,5.4-12,12-12h39.91c6.6,0,12,5.4,12,12v219.5
				C-336.7,273.1-342.1,278.5-348.7,278.5z"/>
			<line class="st9" x1="-400.55" y1="87.71" x2="-336.61" y2="87.71"/>
		</g>
		<g>
			<path class="st10" d="M-279.71,278.5h-44.9c-6.6,0-12-5.4-12-12V24c0-6.6,5.4-12,12-12h44.9c6.6,0,12,5.4,12,12v242.5
				C-267.71,273.1-273.11,278.5-279.71,278.5z"/>
			<line class="st10" x1="-336.55" y1="58.91" x2="-267.61" y2="58.91"/>
		</g>
		<g>
			<path class="st11" d="M-200.22,278.5h-53.39c-6.6,0-12-5.4-12-12v-243c0-6.6,5.4-12,12-12h53.39c6.6,0,12,5.4,12,12v243
				C-188.22,273.1-193.62,278.5-200.22,278.5z"/>
			<line class="st11" x1="-265.54" y1="58.5" x2="-188.11" y2="58.5"/>
		</g>
		<g>
			<path class="st12" d="M-106.36,274.51l-36.44,5.56c-6.52,0.99-12.68-3.53-13.67-10.05l-31.9-209.24
				c-0.99-6.52,3.53-12.68,10.05-13.67l36.44-5.56c6.52-0.99,12.68,3.53,13.67,10.05l31.9,209.24
				C-95.31,267.37-99.84,273.52-106.36,274.51z"/>
			<line class="st13" x1="-183.88" y1="101.47" x2="-123.67" y2="92.3"/>
		</g>
		<path class="st14" d="M-448.61,278c0,0-10-60,56-67c0,0-4-72,65-43c0,0,15-62,92-63s81.89,74.59,81.89,74.59S-48.16,185-68.39,278
			c0,0-14.22,48-90.22,48s-227.11,0-227.11,0S-446.61,322-448.61,278z"/>
	</g>
</g>
</svg>
