<?xml version="1.0" encoding="utf-8"?>
<!-- Generator: Adobe Illustrator 27.5.0, SVG Export Plug-In . SVG Version: 6.00 Build 0)  -->
<svg version="1.1" xmlns="http://www.w3.org/2000/svg" xmlns:xlink="http://www.w3.org/1999/xlink" x="0px" y="0px"
	 width="376.41px" height="308px" viewBox="0 0 376.41 308" style="enable-background:new 0 0 376.41 308;" xml:space="preserve">
<style type="text/css">
	.st0{display:none;fill:#1D202B;}
	.st1{display:none;}
	.st2{display:inline;}
	.st3{fill:#6ACEFF;}
	.st4{fill:#355CFF;}
	.st5{fill:#4A7DFF;}
	.st6{fill:#2A90FF;}
	.st7{display:inline;fill:url(#SVGID_1_);}
	.st8{fill:none;stroke:#000000;stroke-width:9;stroke-miterlimit:10;}
	.st9{stroke:#FFFFFF;stroke-width:4;stroke-linejoin:round;stroke-miterlimit:10;}
	.st10{fill:#56B4FF;stroke:#FFFFFF;stroke-width:4;stroke-miterlimit:10;}
	.st11{fill:#6ACEFF;stroke:#FFFFFF;stroke-width:4;stroke-miterlimit:10;}
	.st12{fill:#355CFF;stroke:#FFFFFF;stroke-width:4;stroke-miterlimit:10;}
	.st13{fill:#4A7DFF;stroke:#FFFFFF;stroke-width:4;stroke-miterlimit:10;}
	.st14{fill:#2A90FF;stroke:#FFFFFF;stroke-width:4;stroke-miterlimit:10;}
	.st15{fill:none;stroke:#FFFFFF;stroke-width:4;stroke-miterlimit:10;}
	.st16{fill:#334155;stroke:#FFFFFF;stroke-width:5;stroke-miterlimit:10;}
</style>
<g id="Capa_2">
	<rect x="-42.9" y="-493" class="st0" width="463" height="922"/>
	<g class="st1">
		<g class="st2">
			<path class="st3" d="M66.71,150.23c9.65-7.45,22.68-9.06,38.8-4.79V76.71H48.6v116.83c0.32-0.05,0.63-0.09,0.96-0.13
				C49.65,184.87,51.4,162.06,66.71,150.23z"/>
			<path class="st3" d="M48.6,69.71h56.91V32.5c0-4.69-3.81-8.5-8.5-8.5H57.1c-4.69,0-8.5,3.81-8.5,8.5V69.71z"/>
		</g>
		<g class="st2">
			<path class="st4" d="M112.6,40.09h61.9V8.5c0-4.69-3.81-8.5-8.5-8.5h-44.9c-4.69,0-8.5,3.81-8.5,8.5V40.09z"/>
			<path class="st4" d="M174.5,92.5V47.09h-61.9v100.54c1.06,0.37,2.15,0.77,3.26,1.2C119.67,137.65,133.9,105.56,174.5,92.5z"/>
		</g>
		<g class="st2">
			<path class="st5" d="M182.6,40.5h70.39V9c0-4.69-3.81-8.5-8.5-8.5H191.1c-4.69,0-8.5,3.81-8.5,8.5V40.5z"/>
			<path class="st5" d="M211.6,86.99c15.69,0,29.58,3.14,41.38,9.36V47.5H182.6v42.75c8.57-2.03,17.78-3.12,27.46-3.25
				C210.57,86.99,211.09,86.99,211.6,86.99z"/>
		</g>
		<g class="st2">
			<path class="st6" d="M314.05,37.63c-0.71-4.63-5.07-7.83-9.69-7.12l-36.44,5.55c-4.63,0.71-7.83,5.05-7.13,9.68l5.64,36.99
				l53.26-8.12L314.05,37.63z"/>
			<path class="st6" d="M295.17,161.83c6.5,0.64,22.57,2.85,39.33,9.98l-13.76-90.28l-53.26,8.12l2.99,19.6
				C289.32,128.17,294.06,153.21,295.17,161.83z"/>
		</g>
		<linearGradient id="SVGID_1_" gradientUnits="userSpaceOnUse" x1="89.4269" y1="142.5126" x2="304.5234" y2="366.2552">
			<stop  offset="0" style="stop-color:#93AAD1"/>
			<stop  offset="0.0632" style="stop-color:#889EC3"/>
			<stop  offset="0.2625" style="stop-color:#6A7D9C"/>
			<stop  offset="0.4594" style="stop-color:#52637D"/>
			<stop  offset="0.6507" style="stop-color:#415067"/>
			<stop  offset="0.8338" style="stop-color:#36455A"/>
			<stop  offset="1" style="stop-color:#334155"/>
		</linearGradient>
		<path class="st7" d="M337.38,180.84c-21.97-10.91-45.34-12.25-45.57-12.26l-3.11-0.16l-0.2-3.11c-0.02-0.3-2.3-31.03-23.75-51.88
			c-3.12-3.03-6.53-5.74-10.15-8.05c-11.76-7.57-26.22-11.4-43-11.4c-0.49,0-0.97,0-1.46,0.01c-10.75,0.14-20.88,1.53-30.09,4.14
			l-0.12,0.03c-0.3,0.07-0.61,0.17-0.91,0.26c-46.68,13.74-57.42,55.48-57.53,55.9l-0.98,3.98l-3.78-1.58
			c-3.08-1.29-6.01-2.38-8.71-3.24l-0.11-0.04c-15.89-5.11-28.32-4.33-36.92,2.31c-15.75,12.14-14.43,40.27-14.41,40.55l0.18,3.31
			l-3.3,0.36c-2.73,0.29-5.32,0.67-7.71,1.14C-7.3,211.15,0.2,260.82,0.55,262.93l0.04,0.41c1.8,39.53,56.79,44.44,59.52,44.66
			H287.1c70.9,0,86.06-43.02,86.83-45.4C382.17,224.49,369.87,196.98,337.38,180.84z"/>
	</g>
</g>
<g id="Capa_3">
	<g>
		<g>
			<path class="st8" d="M-381-163h-39.91c-6.6,0-12-5.4-12-12v-219.5c0-6.6,5.4-12,12-12H-381c6.6,0,12,5.4,12,12V-175
				C-369-168.4-374.4-163-381-163z"/>
			<line class="st8" x1="-432.85" y1="-353.79" x2="-368.9" y2="-353.79"/>
		</g>
		<g>
			<path class="st8" d="M-312-163h-44.9c-6.6,0-12-5.4-12-12v-242.5c0-6.6,5.4-12,12-12h44.9c6.6,0,12,5.4,12,12V-175
				C-300-168.4-305.4-163-312-163z"/>
			<line class="st8" x1="-368.84" y1="-382.59" x2="-299.9" y2="-382.59"/>
		</g>
		<g>
			<path class="st8" d="M-234.52-163h-53.39c-6.6,0-12-5.4-12-12v-243c0-6.6,5.4-12,12-12h53.39c6.6,0,12,5.4,12,12v243
				C-222.52-168.4-227.92-163-234.52-163z"/>
			<line class="st8" x1="-299.83" y1="-383" x2="-222.4" y2="-383"/>
		</g>
		<g>
			<path class="st8" d="M-138.65-166.99l-36.44,5.56c-6.52,0.99-12.68-3.53-13.67-10.05l-31.9-209.24
				c-0.99-6.52,3.53-12.68,10.05-13.67l36.44-5.56c6.52-0.99,12.68,3.53,13.67,10.05l31.9,209.24
				C-127.61-174.13-132.13-167.98-138.65-166.99z"/>
			<line class="st8" x1="-216.17" y1="-340.03" x2="-155.97" y2="-349.2"/>
		</g>
		<path class="st9" d="M-480.9-163.5c0,0-10-60,56-67c0,0-4-72,65-43c0,0,15-62,92-63s81.89,74.59,81.89,74.59
			s105.56,5.41,85.33,98.41c0,0-14.22,48-90.22,48s-227.11,0-227.11,0S-478.9-119.5-480.9-163.5z"/>
	</g>
	<g>
		<g>
			<path class="st10" d="M-391,264h-39.91c-6.6,0-12-5.4-12-12V32.5c0-6.6,5.4-12,12-12H-391c6.6,0,12,5.4,12,12V252
				C-379,258.6-384.4,264-391,264z"/>
			<line class="st11" x1="-442.85" y1="73.21" x2="-378.9" y2="73.21"/>
		</g>
		<g>
			<path class="st12" d="M-322,264h-44.9c-6.6,0-12-5.4-12-12V9.5c0-6.6,5.4-12,12-12h44.9c6.6,0,12,5.4,12,12V252
				C-310,258.6-315.4,264-322,264z"/>
			<line class="st12" x1="-378.84" y1="44.41" x2="-309.9" y2="44.41"/>
		</g>
		<g>
			<path class="st13" d="M-242.52,264h-53.39c-6.6,0-12-5.4-12-12V9c0-6.6,5.4-12,12-12h53.39c6.6,0,12,5.4,12,12v243
				C-230.52,258.6-235.92,264-242.52,264z"/>
			<line class="st13" x1="-307.83" y1="44" x2="-230.4" y2="44"/>
		</g>
		<g>
			<path class="st14" d="M-148.65,260.01l-36.44,5.56c-6.52,0.99-12.68-3.53-13.67-10.05l-31.9-209.24
				c-0.99-6.52,3.53-12.68,10.05-13.67l36.44-5.56c6.52-0.99,12.68,3.53,13.67,10.05l31.9,209.24
				C-137.61,252.87-142.13,259.02-148.65,260.01z"/>
			<line class="st15" x1="-226.17" y1="86.97" x2="-165.97" y2="77.8"/>
		</g>
		<path class="st16" d="M-490.9,263.5c0,0-10-60,56-67c0,0-4-72,65-43c0,0,15-62,92-63s81.89,74.59,81.89,74.59
			s105.56,5.41,85.33,98.41c0,0-14.22,48-90.22,48s-227.11,0-227.11,0S-488.9,307.5-490.9,263.5z"/>
	</g>
</g>
</svg>
